<svg width="144" height="144" viewBox="0 0 144 144" fill="none" xmlns="http://www.w3.org/2000/svg">
<g clip-path="url(#clip0_341_4031)">
<path fill-rule="evenodd" clip-rule="evenodd" d="M72 0C32.2354 0 0 32.2354 0 72C0 111.765 32.2354 144 72 144C111.765 144 144 111.765 144 72C144 32.2354 111.765 0 72 0Z" fill="#00C4CC"/>
<path fill-rule="evenodd" clip-rule="evenodd" d="M120.137 74.057C119.315 74.057 117.875 73.8513 117.875 73.0285C117.875 72.2056 119.726 72.617 119.52 70.7656C119.314 69.5313 118.08 69.1199 116.846 69.1199C112.732 69.1199 110.057 74.4684 110.674 78.7884C110.88 80.4342 111.703 82.2856 113.349 82.2856C114.583 82.2856 116.435 80.4342 117.257 77.7599C117.669 76.1142 119.315 74.6742 120.755 74.6742C121.372 74.6742 121.783 74.8799 121.989 75.7027C121.989 76.1142 121.989 76.937 121.166 79.6113C120.137 81.4627 120.137 82.4913 120.343 83.3142C120.549 84.9599 121.372 86.1942 122.195 86.8113C122.4 87.017 122.606 87.4285 122.606 87.4285C122.606 87.8399 122.4 88.2513 121.783 88.2513C121.577 88.2513 121.372 88.2513 121.166 88.0456C118.08 86.8113 116.846 84.7542 116.435 82.697C115.2 84.137 113.76 84.9599 112.115 84.9599C109.44 84.9599 106.766 82.4913 106.355 79.4056C106.211 78.1672 106.396 76.8342 106.801 75.5114C105.581 76.2931 104.271 76.7313 103.065 76.7313H102.037C99.3623 80.6399 96.4823 83.3142 94.4251 84.5484C93.6023 84.9599 92.7794 85.1656 92.1623 85.1656C91.7508 85.1656 91.1337 84.9599 90.928 84.5484C90.3623 83.6351 89.994 82.191 89.7698 80.5432C86.8836 83.705 82.899 85.3713 81.0558 85.3713C78.9986 85.3713 77.7643 84.137 77.5586 82.0799V79.817C78.1758 75.2913 79.8215 72.617 79.8215 71.7942C79.8215 71.5885 79.6158 71.3827 79.41 71.3827C77.97 71.3827 73.2386 76.3199 72.4158 79.6113L71.7986 82.2856C71.3872 84.137 69.5358 85.3713 68.3015 85.3713C67.6843 85.3713 67.2729 85.1656 67.0672 84.3427V83.5199L67.347 82.121C64.7385 83.9807 62.1218 85.1656 60.8978 85.1656C59.0464 85.1656 58.0178 84.137 57.8121 82.697C56.5778 84.3427 55.1378 85.1656 53.2864 85.1656C51.1758 85.1656 49.1104 83.7256 48.1127 81.6129C46.6521 83.2586 44.9796 84.9249 43.0048 86.1962C40.1248 88.0477 36.8334 89.4876 32.9248 89.4876C29.4276 89.4876 26.3419 87.6362 24.6962 85.9905C22.2276 83.7276 20.7876 80.2305 20.5819 76.9391C19.3476 66.8591 25.5191 53.8991 34.9819 48.1391C37.2448 46.9048 39.5076 46.0819 41.7705 46.0819C46.2962 46.0819 49.7934 49.3734 50.2048 53.2819C50.6162 56.7791 49.1762 59.8648 45.2676 61.7162C43.2105 62.7448 42.3876 62.7448 41.9762 62.1276C41.7705 61.7162 41.9762 61.3048 42.3876 60.8934C46.0905 57.8076 46.0905 55.3391 45.6791 51.8419C45.4734 49.5791 43.8276 48.1391 42.1819 48.1391C34.9819 48.1391 24.6962 64.1848 26.1362 75.9105C26.7534 80.4362 29.4276 85.7848 35.1876 85.7848C37.0391 85.7848 39.0962 85.1676 40.9476 84.3448C43.9511 82.7608 45.7408 81.5265 47.5305 79.5517C47.0923 74.2381 51.7559 67.2705 58.6391 67.2705C61.7248 67.2705 64.1934 68.5048 64.3991 70.7677C64.8105 73.8534 62.1362 74.2648 61.3134 74.2648C60.4905 74.2648 59.0505 74.0591 59.0505 73.2362C58.8448 72.4134 60.9019 72.8248 60.6962 70.9734C60.4905 69.7391 59.2562 69.3277 58.0219 69.3277C53.7019 69.3277 51.2334 75.2934 51.8505 78.9962C52.0562 80.6419 52.8791 82.2877 54.5248 82.2877C55.7591 82.2877 57.6105 80.4362 58.2276 77.7619C58.6391 75.9105 60.2848 74.6762 61.7248 74.6762C62.3419 74.6762 62.7534 74.8819 62.9591 75.7048V76.5277C62.7534 77.3505 62.1362 79.8191 62.3419 80.4362C62.3419 80.8477 62.5476 81.4648 63.3705 81.4648C63.9156 81.4648 65.9831 80.3827 68.0279 78.7082C68.7273 75.1699 69.544 70.9219 69.544 70.5661C69.7497 69.1261 70.3668 67.686 73.2468 67.686C73.864 67.686 74.2754 67.8918 74.4811 68.7146V69.5375L73.6583 73.2403C76.3326 69.7432 80.2411 67.2746 82.7097 67.2746C83.7383 67.2746 84.5611 67.8918 84.5611 68.9203C84.5611 69.5375 84.5611 70.5661 84.1497 71.5946C83.3268 73.8575 82.2983 77.3546 81.6811 80.4403C81.6811 81.2632 81.8868 82.0861 82.9154 82.0861C83.944 82.0861 87.0297 80.8518 89.4983 77.5603L89.5394 77.5357C89.5271 77.1325 89.4983 76.7334 89.4983 76.3281C89.4983 73.8595 89.704 71.8024 90.1154 70.3624C90.5268 68.7167 92.584 67.2767 93.8183 67.2767C94.4354 67.2767 95.0526 67.6881 95.0526 68.3052C95.0526 68.511 95.0526 68.9224 94.8468 69.1281C94.024 71.8024 93.4068 74.271 93.4068 76.7395C93.4068 78.1795 93.6126 80.2367 94.024 81.471C94.024 81.6767 94.2297 81.8824 94.4354 81.8824C94.8468 81.8824 97.7268 79.2081 99.784 75.711C97.9326 74.4767 96.904 72.4195 96.904 69.951C96.904 65.631 99.5783 63.3681 102.047 63.3681C104.104 63.3681 105.75 64.8081 105.75 67.6881C105.75 69.5395 105.133 71.5967 104.104 73.4481H104.721C106.367 73.4481 107.395 72.831 108.218 72.0081C108.409 71.6966 108.691 71.4522 109.027 71.3087C111.035 68.7578 114.005 66.8653 117.482 66.8653C120.362 66.8653 123.03 68.0995 123.242 70.3624C123.653 73.4481 120.975 74.0653 120.15 74.0653L120.137 74.057Z" fill="white"/>
<path fill-rule="evenodd" clip-rule="evenodd" d="M100.388 65.8286C99.7712 65.8286 99.3597 66.8572 99.3597 67.8858C99.3597 69.5315 100.183 71.3829 101.211 72.4115C101.623 71.1772 101.828 70.1486 101.828 68.9143C101.828 66.8572 101.005 65.8286 100.388 65.8286Z" fill="#00C4CC"/>
</g>
<defs>
<clipPath id="clip0_341_4031">
<rect width="144" height="144" fill="white"/>
</clipPath>
</defs>
</svg>
