<svg width="96" height="144" viewBox="0 0 96 144" fill="none" xmlns="http://www.w3.org/2000/svg">
<g clip-path="url(#clip0_341_4036)">
<path d="M48 72C48 65.6348 50.5286 59.5303 55.0294 55.0294C59.5303 50.5286 65.6348 48 72 48C78.3652 48 84.4697 50.5286 88.9706 55.0294C93.4714 59.5303 96 65.6348 96 72C96 78.3652 93.4714 84.4697 88.9706 88.9706C84.4697 93.4714 78.3652 96 72 96C65.6348 96 59.5303 93.4714 55.0294 88.9706C50.5286 84.4697 48 78.3652 48 72Z" fill="#1ABCFE"/>
<path d="M0 120C0 113.635 2.52856 107.53 7.02944 103.029C11.5303 98.5286 17.6348 96 24 96H48V120C48 126.365 45.4714 132.47 40.9706 136.971C36.4697 141.471 30.3652 144 24 144C17.6348 144 11.5303 141.471 7.02944 136.971C2.52856 132.47 0 126.365 0 120H0Z" fill="#0ACF83"/>
<path d="M48 0V48H72C78.3652 48 84.4697 45.4714 88.9706 40.9706C93.4714 36.4697 96 30.3652 96 24C96 17.6348 93.4714 11.5303 88.9706 7.02944C84.4697 2.52856 78.3652 0 72 0L48 0Z" fill="#FF7262"/>
<path d="M0 24C0 30.3652 2.52856 36.4697 7.02944 40.9706C11.5303 45.4714 17.6348 48 24 48H48V0H24C17.6348 0 11.5303 2.52856 7.02944 7.02944C2.52856 11.5303 0 17.6348 0 24H0Z" fill="#F24E1E"/>
<path d="M0 72C0 78.3652 2.52856 84.4697 7.02944 88.9706C11.5303 93.4714 17.6348 96 24 96H48V48H24C17.6348 48 11.5303 50.5286 7.02944 55.0294C2.52856 59.5303 0 65.6348 0 72H0Z" fill="#A259FF"/>
</g>
<defs>
<clipPath id="clip0_341_4036">
<rect width="96" height="144" fill="white"/>
</clipPath>
</defs>
</svg>
