<svg width="144" height="144" viewBox="0 0 144 144" fill="none" xmlns="http://www.w3.org/2000/svg">
<path fill-rule="evenodd" clip-rule="evenodd" d="M26.9842 25.6265C31.44 29.2467 33.1115 28.9705 41.4788 28.4122L120.36 23.6757C122.033 23.6757 120.642 22.0067 120.084 21.7293L106.984 12.2586C104.474 10.3098 101.129 8.07792 94.7196 8.63623L18.3384 14.2072C15.5527 14.4834 14.9964 15.8762 16.1057 16.9926L26.9842 25.6265ZM31.7201 44.0099V127.007C31.7201 131.468 33.9491 133.136 38.966 132.861L125.657 127.844C130.676 127.568 131.236 124.5 131.236 120.877V38.4364C131.236 34.8188 129.844 32.8679 126.771 33.1464L36.1784 38.4364C32.835 38.7174 31.7198 40.3898 31.7198 44.0099H31.7201ZM117.301 48.462C117.857 50.9712 117.301 53.4781 114.787 53.7602L110.61 54.5925V115.866C106.984 117.815 103.64 118.93 100.853 118.93C96.3912 118.93 95.2737 117.536 91.9317 113.361L64.6097 70.4687V111.968L73.2555 113.919C73.2555 113.919 73.2555 118.93 66.2801 118.93L47.0507 120.045C46.4921 118.93 47.0507 116.147 49.0012 115.59L54.0193 114.199V59.3287L47.0521 58.7704C46.4932 56.2612 47.8849 52.6433 51.7903 52.3626L72.419 50.972L100.853 94.4225V55.985L93.6033 55.153C93.0469 52.0856 95.2737 49.8582 98.0616 49.582L117.301 48.462ZM11.9253 6.68764L91.374 0.836787C101.13 2.52724e-05 103.641 0.560591 109.773 5.01496L135.134 22.84C139.319 25.9053 140.713 26.7398 140.713 30.0812V127.844C140.713 133.971 138.481 137.595 130.678 138.149L38.4139 143.721C32.556 144 29.7681 143.165 26.7004 139.264L8.02415 115.032C4.67795 110.572 3.28625 107.235 3.28625 103.331V16.4323C3.28625 11.4219 5.51893 7.24229 11.9253 6.68764Z" fill="black"/>
</svg>
