<svg width="126" height="125" viewBox="0 0 126 125" fill="none" xmlns="http://www.w3.org/2000/svg">
<path d="M1 62.5C1 28.2583 28.7583 0.5 63 0.5C97.2417 0.5 125 28.2583 125 62.5V124.5H1V62.5Z" fill="#F3AFA8" stroke="black"/>
<path d="M32.9279 98.8469L39.5794 98.8469L39.5794 91.9637L32.9279 91.9637L32.9279 98.8469ZM88.3042 42.3845C88.3042 41.9189 87.9395 41.5415 87.4896 41.5415L80.1579 41.5415C79.708 41.5415 79.3433 41.9189 79.3433 42.3845C79.3433 42.8501 79.708 43.2275 80.1579 43.2275L86.675 43.2275L86.675 49.9716C86.675 50.4372 87.0397 50.8146 87.4896 50.8146C87.9395 50.8146 88.3043 50.4372 88.3043 49.9716L88.3042 42.3845ZM36.8297 96.0014L88.0656 42.9806L86.9136 41.7884L35.6776 94.8092L36.8297 96.0014Z" fill="#2D2D2D"/>
</svg>
