<svg width="131" height="128" viewBox="0 0 131 128" fill="none" xmlns="http://www.w3.org/2000/svg">
<mask id="path-1-inside-1_341_1108" fill="white">
<path d="M0.499878 0.722656C70.64 0.722656 127.5 57.5825 127.5 127.723H0.499878V0.722656Z"/>
</mask>
<path d="M0.499878 0.722656C70.64 0.722656 127.5 57.5825 127.5 127.723H0.499878V0.722656Z" fill="#FF6250"/>
<path d="M0.499878 127.723H-0.500122V128.723H0.499878V127.723ZM127.5 126.723H0.499878V128.723H127.5V126.723ZM1.49988 127.723V0.722656H-0.500122V127.723H1.49988ZM0.499878 1.72266C70.0878 1.72266 126.5 58.1348 126.5 127.723H128.5C128.5 57.0302 71.1923 -0.277344 0.499878 -0.277344V1.72266Z" fill="black" mask="url(#path-1-inside-1_341_1108)"/>
<path d="M71.0295 70.9564L77.9443 70.9564L77.9443 64.0416L71.0295 64.0416L71.0295 70.9564ZM130.957 11.0287L124.042 11.0287L124.042 17.9435L130.957 17.9435L130.957 11.0287ZM75.0858 68.0978L128.099 15.0849L126.901 13.8872L73.8881 66.9002L75.0858 68.0978Z" fill="#2D2D2D"/>
</svg>
