<svg width="148" height="144" viewBox="0 0 148 144" fill="none" xmlns="http://www.w3.org/2000/svg">
<g clip-path="url(#clip0_341_4010)">
<path d="M121.693 0H26.3079C11.8635 0 0.154053 11.7095 0.154053 26.1538V117.846C0.154053 132.291 11.8635 144 26.3079 144H121.693C136.137 144 147.846 132.291 147.846 117.846V26.1538C147.846 11.7095 136.137 0 121.693 0Z" fill="#470137"/>
<path d="M77.7952 37.8697L59.3668 68.2864L79.0831 100.585C79.2096 100.811 79.245 101.077 79.1823 101.328C79.1156 101.561 78.8851 101.414 78.4887 101.479H64.4199C63.4289 101.479 62.7354 101.445 62.3391 100.784C61.017 98.2076 59.696 95.6482 58.3761 93.1052C57.0539 90.5631 55.6504 87.9706 54.1654 85.3275C52.6793 82.6866 51.2096 80.0115 49.7565 77.3023H49.6573C48.3352 79.9449 46.9646 82.5869 45.5455 85.2285C44.1246 87.8711 42.721 90.4966 41.3349 93.1052C39.9479 95.7151 38.5278 98.3076 37.0747 100.883C36.81 101.477 36.3469 101.538 35.6874 101.538H22.1141C21.8508 101.538 21.7021 101.643 21.6681 101.378C21.6309 101.136 21.6838 100.89 21.8169 100.684L40.9386 69.277L22.3121 37.7706C22.1141 37.5075 22.081 37.2929 22.2129 37.1266C22.2861 37.0421 22.3779 36.9757 22.4811 36.9327C22.5842 36.8897 22.696 36.8713 22.8076 36.8789H36.7772C37.0818 36.8621 37.3864 36.9129 37.669 37.0276C37.9059 37.1618 38.1092 37.3482 38.2634 37.5726C39.4524 40.215 40.7734 42.857 42.2264 45.4986C43.6787 48.1412 45.1483 50.7502 46.6354 53.3257C48.1216 55.9017 49.4922 58.5107 50.7472 61.1528H50.8463C52.1666 58.4452 53.5042 55.8031 54.8589 53.2267C56.212 50.6507 57.599 48.0581 59.02 45.4491C60.4398 42.8406 61.8104 40.2481 63.1318 37.6716C63.2077 37.4271 63.344 37.2056 63.5281 37.0276C63.7727 36.9034 64.0477 36.8518 64.3207 36.8789H77.2997C77.4249 36.848 77.5568 36.8606 77.6738 36.9147C77.7908 36.9687 77.886 37.0609 77.9436 37.1762C78.0013 37.2915 78.018 37.423 77.991 37.549C77.964 37.675 77.895 37.7882 77.7952 37.8697L77.7952 37.8697Z" fill="#FF61F6"/>
<path d="M106.229 102.765C101.669 102.835 97.1502 101.887 93.0021 99.991C89.1379 98.2025 85.9076 95.2831 83.7386 91.619C81.4922 87.8881 80.3693 83.2149 80.3699 77.5996C80.3326 73.0523 81.4945 68.5756 83.7386 64.6205C86.0501 60.5918 89.4494 57.2955 93.5472 55.1091C97.8399 52.7312 103.025 51.5423 109.102 51.5423C109.432 51.5423 109.861 51.5589 110.39 51.5919C110.918 51.6259 111.545 51.6754 112.273 51.7405V32.2224C112.273 31.761 112.471 31.5288 112.867 31.5288H125.351C125.431 31.5173 125.514 31.5247 125.591 31.5505C125.669 31.5763 125.739 31.6197 125.797 31.6774C125.854 31.735 125.898 31.8053 125.924 31.8827C125.949 31.9601 125.957 32.0424 125.945 32.1232V90.6777C125.945 91.8016 125.995 93.0236 126.094 94.3435C126.193 95.6655 126.276 96.8544 126.342 97.9103C126.354 98.1161 126.304 98.3208 126.197 98.4976C126.091 98.6743 125.934 98.815 125.747 98.9011C122.526 100.244 119.172 101.241 115.74 101.873C112.603 102.452 109.42 102.751 106.229 102.765ZM112.273 90.4795V63.4316C111.737 63.2866 111.19 63.1871 110.638 63.1343C109.963 63.0664 109.285 63.0334 108.607 63.0353C106.202 63.0114 103.826 63.5544 101.671 64.6205C99.5723 65.6639 97.7801 67.2343 96.47 69.178C95.1154 71.1595 94.4383 73.7686 94.4387 77.0051C94.3905 79.1649 94.7432 81.3149 95.479 83.346C96.0778 84.9826 97.0243 86.4699 98.2533 87.7054C99.4298 88.8421 100.854 89.6901 102.414 90.1824C104.062 90.716 105.785 90.9835 107.517 90.9749C108.441 90.9749 109.3 90.9419 110.093 90.8759C110.831 90.8203 111.562 90.6874 112.273 90.4795Z" fill="#FF61F6"/>
</g>
<defs>
<clipPath id="clip0_341_4010">
<rect width="147.692" height="144" fill="white" transform="translate(0.154053)"/>
</clipPath>
</defs>
</svg>
